<svg id="Group_1333" data-name="Group 1333" xmlns="http://www.w3.org/2000/svg" xmlns:xlink="http://www.w3.org/1999/xlink" width="107.589" height="40" viewBox="0 0 107.589 40">
  <defs>
    <clipPath id="clip-path">
      <rect id="Rectangle_460" data-name="Rectangle 460" width="107.589" height="40" fill="none"/>
    </clipPath>
  </defs>
  <g id="Group_1332" data-name="Group 1332" clip-path="url(#clip-path)">
    <path id="Path_2479" data-name="Path 2479" d="M54.26,1.628a1.6,1.6,0,1,1,3.2,0,1.6,1.6,0,0,1-3.2,0m4.728,7.848a5.29,5.29,0,1,1-5.278-5.14,5.176,5.176,0,0,1,5.278,5.14m-2.511.02A2.693,2.693,0,0,0,53.73,6.749,2.725,2.725,0,0,0,50.944,9.5a2.758,2.758,0,0,0,2.786,2.786A2.725,2.725,0,0,0,56.477,9.5M51.749,3.218a1.583,1.583,0,0,0,1.589-1.589,1.6,1.6,0,1,0-3.2,0,1.587,1.587,0,0,0,1.609,1.589M63.48,7.024H69.5v4.984h-8.26V14.4H72.093V4.63H63.48Zm24.818,8.5a1.638,1.638,0,1,0,1.628,1.628A1.629,1.629,0,0,0,88.3,15.519m11.365-3.512H93.772V9.633a4.973,4.973,0,0,0-5.317-5H82.648V7.024h5.827a2.608,2.608,0,0,1,2.707,2.629v2.354H77.331V.314h-2.59V14.4h27.511V.314h-2.59ZM105,14.4h2.59V.314H105ZM59.027,35.7H56.516l-.039-1.06a4.391,4.391,0,0,1-3.159,1.354,4.968,4.968,0,0,1-4.9-5.179,4.968,4.968,0,0,1,4.9-5.179,4.466,4.466,0,0,1,3.159,1.275l.039-.981h2.511Zm-2.511-4.885a2.756,2.756,0,1,0-2.746,2.766,2.734,2.734,0,0,0,2.746-2.766M64.053,35.7h-2.59V21.609h2.59Zm3.492-9.77h2.59V39.7h-5V37.285h2.413ZM67.172,22.9a1.626,1.626,0,0,1,1.667-1.648,1.638,1.638,0,0,1,0,3.277A1.633,1.633,0,0,1,67.172,22.9M82.61,35.7H80.1l-.04-1.06A4.389,4.389,0,0,1,76.9,35.99,4.968,4.968,0,0,1,72,30.811a4.968,4.968,0,0,1,4.9-5.179,4.464,4.464,0,0,1,3.158,1.275l.04-.981H82.61ZM80.1,30.811a2.756,2.756,0,1,0-2.747,2.766A2.734,2.734,0,0,0,80.1,30.811m15,4.885H92.588l-.039-1.06A4.391,4.391,0,0,1,89.39,35.99a4.969,4.969,0,0,1-4.9-5.179,4.968,4.968,0,0,1,4.9-5.179,4.418,4.418,0,0,1,3.119,1.236V21.609H95.1Zm-2.511-4.885a2.756,2.756,0,1,0-2.746,2.766,2.734,2.734,0,0,0,2.746-2.766m15,4.885h-2.511l-.04-1.06a4.389,4.389,0,0,1-3.158,1.354,4.968,4.968,0,0,1-4.9-5.179,4.968,4.968,0,0,1,4.9-5.179,4.464,4.464,0,0,1,3.158,1.275l.04-.981h2.511Zm-2.511-4.885a2.756,2.756,0,1,0-2.747,2.766,2.734,2.734,0,0,0,2.747-2.766m-67.51-9.594A18.784,18.784,0,0,1,18.784,40ZM0,21.216A18.783,18.783,0,0,0,18.784,40V21.216Zm.162-2.433H16.351V0ZM37.567,0H18.784V21.216H37.567Z" fill="#1a1818"/>
  </g>
</svg>